<svg aria-roledescription="er" role="graphics-document document" viewBox="0 0 452.209716796875 546.5" style="max-width: 452.209716796875px;" xmlns="http://www.w3.org/2000/svg" width="100%" id="mermaidSvgChart"><style>#mermaidSvgChart{font-family:"trebuchet ms",verdana,arial,sans-serif;font-size:16px;fill:#000000;}#mermaidSvgChart .error-icon{fill:#552222;}#mermaidSvgChart .error-text{fill:#552222;stroke:#552222;}#mermaidSvgChart .edge-thickness-normal{stroke-width:2px;}#mermaidSvgChart .edge-thickness-thick{stroke-width:3.5px;}#mermaidSvgChart .edge-pattern-solid{stroke-dasharray:0;}#mermaidSvgChart .edge-pattern-dashed{stroke-dasharray:3;}#mermaidSvgChart .edge-pattern-dotted{stroke-dasharray:2;}#mermaidSvgChart .marker{fill:#666;stroke:#666;}#mermaidSvgChart .marker.cross{stroke:#666;}#mermaidSvgChart svg{font-family:"trebuchet ms",verdana,arial,sans-serif;font-size:16px;}#mermaidSvgChart .entityBox{fill:#eee;stroke:#999;}#mermaidSvgChart .attributeBoxOdd{fill:#ffffff;stroke:#999;}#mermaidSvgChart .attributeBoxEven{fill:#f2f2f2;stroke:#999;}#mermaidSvgChart .relationshipLabelBox{fill:hsl(-160, 0%, 93.3333333333%);opacity:0.7;background-color:hsl(-160, 0%, 93.3333333333%);}#mermaidSvgChart .relationshipLabelBox rect{opacity:0.5;}#mermaidSvgChart .relationshipLine{stroke:#666;}#mermaidSvgChart .entityTitleText{text-anchor:middle;font-size:18px;fill:#000000;}#mermaidSvgChart :root{--mermaid-font-family:"trebuchet ms",verdana,arial,sans-serif;}</style><g></g><defs><marker orient="auto" markerHeight="18" markerWidth="18" refY="9" refX="0" id="ONLY_ONE_START"><path d="M9,0 L9,18 M15,0 L15,18" fill="none" stroke="gray"></path></marker></defs><defs><marker orient="auto" markerHeight="18" markerWidth="18" refY="9" refX="18" id="ONLY_ONE_END"><path d="M3,0 L3,18 M9,0 L9,18" fill="none" stroke="gray"></path></marker></defs><defs><marker orient="auto" markerHeight="18" markerWidth="30" refY="9" refX="0" id="ZERO_OR_ONE_START"><circle r="6" cy="9" cx="21" fill="white" stroke="gray"></circle><path d="M9,0 L9,18" fill="none" stroke="gray"></path></marker></defs><defs><marker orient="auto" markerHeight="18" markerWidth="30" refY="9" refX="30" id="ZERO_OR_ONE_END"><circle r="6" cy="9" cx="9" fill="white" stroke="gray"></circle><path d="M21,0 L21,18" fill="none" stroke="gray"></path></marker></defs><defs><marker orient="auto" markerHeight="36" markerWidth="45" refY="18" refX="18" id="ONE_OR_MORE_START"><path d="M0,18 Q 18,0 36,18 Q 18,36 0,18 M42,9 L42,27" fill="none" stroke="gray"></path></marker></defs><defs><marker orient="auto" markerHeight="36" markerWidth="45" refY="18" refX="27" id="ONE_OR_MORE_END"><path d="M3,9 L3,27 M9,18 Q27,0 45,18 Q27,36 9,18" fill="none" stroke="gray"></path></marker></defs><defs><marker orient="auto" markerHeight="36" markerWidth="57" refY="18" refX="18" id="ZERO_OR_MORE_START"><circle r="6" cy="18" cx="48" fill="white" stroke="gray"></circle><path d="M0,18 Q18,0 36,18 Q18,36 0,18" fill="none" stroke="gray"></path></marker></defs><defs><marker orient="auto" markerHeight="36" markerWidth="57" refY="18" refX="39" id="ZERO_OR_MORE_END"><circle r="6" cy="18" cx="9" fill="white" stroke="gray"></circle><path d="M21,18 Q39,0 57,18 Q39,36 21,18" fill="none" stroke="gray"></path></marker></defs><path style="stroke: gray; fill: none;" marker-start="url(#ZERO_OR_ONE_START)" marker-end="url(#ONE_OR_MORE_END)" d="M98.052,192L98.052,200.333C98.052,208.667,98.052,225.333,106.481,244.675C114.909,264.017,131.766,286.033,140.194,297.042L148.623,308.05" class="er relationshipLine"></path><path style="stroke: gray; fill: none;" marker-start="url(#ZERO_OR_ONE_START)" marker-end="url(#ONE_OR_MORE_END)" d="M354.157,170.75L354.157,182.625C354.157,194.5,354.157,218.25,345.729,241.133C337.301,264.017,320.444,286.033,312.015,297.042L303.587,308.05" class="er relationshipLine"></path><g transform="translate(148.62274169921875,292 )" id="entity-dbostaffs-36fcb06c-2de3-5458-bea8-c431862e5041"><rect height="234.5" width="154.96422576904297" y="0" x="0" class="er entityBox"></rect><text style="dominant-baseline: middle; text-anchor: middle; font-size: 12px;" transform="translate(77.48211288452148,11.75)" y="0" x="0" id="text-entity-dbostaffs-36fcb06c-2de3-5458-bea8-c431862e5041" class="er entityLabel">dbo.staffs</text><rect height="21" width="68.4265365600586" y="23.5" x="0" class="er attributeBoxOdd"></rect><text style="dominant-baseline: middle; font-size: 10.2px;" transform="translate(5,34)" y="0" x="0" id="text-entity-dbostaffs-36fcb06c-2de3-5458-bea8-c431862e5041-attr-1-type" class="er entityLabel">varchar(50)</text><rect height="21" width="62.734375" y="23.5" x="68.4265365600586" class="er attributeBoxOdd"></rect><text style="dominant-baseline: middle; font-size: 10.2px;" transform="translate(73.4265365600586,34)" y="0" x="0" id="text-entity-dbostaffs-36fcb06c-2de3-5458-bea8-c431862e5041-attr-1-name" class="er entityLabel">id</text><rect height="21" width="23.803314208984375" y="23.5" x="131.1609115600586" class="er attributeBoxOdd"></rect><text style="dominant-baseline: middle; font-size: 10.2px;" transform="translate(136.1609115600586,34)" y="0" x="0" id="text-entity-dbostaffs-36fcb06c-2de3-5458-bea8-c431862e5041-attr-1-comment" class="er entityLabel">PK</text><rect height="21" width="68.4265365600586" y="44.5" x="0" class="er attributeBoxEven"></rect><text style="dominant-baseline: middle; font-size: 10.2px;" transform="translate(5,55)" y="0" x="0" id="text-entity-dbostaffs-36fcb06c-2de3-5458-bea8-c431862e5041-attr-2-type" class="er entityLabel">varchar(100)</text><rect height="21" width="62.734375" y="44.5" x="68.4265365600586" class="er attributeBoxEven"></rect><text style="dominant-baseline: middle; font-size: 10.2px;" transform="translate(73.4265365600586,55)" y="0" x="0" id="text-entity-dbostaffs-36fcb06c-2de3-5458-bea8-c431862e5041-attr-2-name" class="er entityLabel">name</text><rect height="21" width="23.803314208984375" y="44.5" x="131.1609115600586" class="er attributeBoxEven"></rect><text style="dominant-baseline: middle; font-size: 10.2px;" transform="translate(136.1609115600586,55)" y="0" x="0" id="text-entity-dbostaffs-36fcb06c-2de3-5458-bea8-c431862e5041-attr-2-comment" class="er entityLabel"></text><rect height="21" width="68.4265365600586" y="65.5" x="0" class="er attributeBoxOdd"></rect><text style="dominant-baseline: middle; font-size: 10.2px;" transform="translate(5,76)" y="0" x="0" id="text-entity-dbostaffs-36fcb06c-2de3-5458-bea8-c431862e5041-attr-3-type" class="er entityLabel">varchar(5)</text><rect height="21" width="62.734375" y="65.5" x="68.4265365600586" class="er attributeBoxOdd"></rect><text style="dominant-baseline: middle; font-size: 10.2px;" transform="translate(73.4265365600586,76)" y="0" x="0" id="text-entity-dbostaffs-36fcb06c-2de3-5458-bea8-c431862e5041-attr-3-name" class="er entityLabel">sex</text><rect height="21" width="23.803314208984375" y="65.5" x="131.1609115600586" class="er attributeBoxOdd"></rect><text style="dominant-baseline: middle; font-size: 10.2px;" transform="translate(136.1609115600586,76)" y="0" x="0" id="text-entity-dbostaffs-36fcb06c-2de3-5458-bea8-c431862e5041-attr-3-comment" class="er entityLabel"></text><rect height="21" width="68.4265365600586" y="86.5" x="0" class="er attributeBoxEven"></rect><text style="dominant-baseline: middle; font-size: 10.2px;" transform="translate(5,97)" y="0" x="0" id="text-entity-dbostaffs-36fcb06c-2de3-5458-bea8-c431862e5041-attr-4-type" class="er entityLabel">varchar(20)</text><rect height="21" width="62.734375" y="86.5" x="68.4265365600586" class="er attributeBoxEven"></rect><text style="dominant-baseline: middle; font-size: 10.2px;" transform="translate(73.4265365600586,97)" y="0" x="0" id="text-entity-dbostaffs-36fcb06c-2de3-5458-bea8-c431862e5041-attr-4-name" class="er entityLabel">phone</text><rect height="21" width="23.803314208984375" y="86.5" x="131.1609115600586" class="er attributeBoxEven"></rect><text style="dominant-baseline: middle; font-size: 10.2px;" transform="translate(136.1609115600586,97)" y="0" x="0" id="text-entity-dbostaffs-36fcb06c-2de3-5458-bea8-c431862e5041-attr-4-comment" class="er entityLabel"></text><rect height="21.5" width="68.4265365600586" y="107.5" x="0" class="er attributeBoxOdd"></rect><text style="dominant-baseline: middle; font-size: 10.2px;" transform="translate(5,118.25)" y="0" x="0" id="text-entity-dbostaffs-36fcb06c-2de3-5458-bea8-c431862e5041-attr-5-type" class="er entityLabel">varchar(255)</text><rect height="21.5" width="62.734375" y="107.5" x="68.4265365600586" class="er attributeBoxOdd"></rect><text style="dominant-baseline: middle; font-size: 10.2px;" transform="translate(73.4265365600586,118.25)" y="0" x="0" id="text-entity-dbostaffs-36fcb06c-2de3-5458-bea8-c431862e5041-attr-5-name" class="er entityLabel">home_town</text><rect height="21.5" width="23.803314208984375" y="107.5" x="131.1609115600586" class="er attributeBoxOdd"></rect><text style="dominant-baseline: middle; font-size: 10.2px;" transform="translate(136.1609115600586,118.25)" y="0" x="0" id="text-entity-dbostaffs-36fcb06c-2de3-5458-bea8-c431862e5041-attr-5-comment" class="er entityLabel"></text><rect height="21" width="68.4265365600586" y="129" x="0" class="er attributeBoxEven"></rect><text style="dominant-baseline: middle; font-size: 10.2px;" transform="translate(5,139.5)" y="0" x="0" id="text-entity-dbostaffs-36fcb06c-2de3-5458-bea8-c431862e5041-attr-6-type" class="er entityLabel">date</text><rect height="21" width="62.734375" y="129" x="68.4265365600586" class="er attributeBoxEven"></rect><text style="dominant-baseline: middle; font-size: 10.2px;" transform="translate(73.4265365600586,139.5)" y="0" x="0" id="text-entity-dbostaffs-36fcb06c-2de3-5458-bea8-c431862e5041-attr-6-name" class="er entityLabel">birthday</text><rect height="21" width="23.803314208984375" y="129" x="131.1609115600586" class="er attributeBoxEven"></rect><text style="dominant-baseline: middle; font-size: 10.2px;" transform="translate(136.1609115600586,139.5)" y="0" x="0" id="text-entity-dbostaffs-36fcb06c-2de3-5458-bea8-c431862e5041-attr-6-comment" class="er entityLabel"></text><rect height="21.5" width="68.4265365600586" y="150" x="0" class="er attributeBoxOdd"></rect><text style="dominant-baseline: middle; font-size: 10.2px;" transform="translate(5,160.75)" y="0" x="0" id="text-entity-dbostaffs-36fcb06c-2de3-5458-bea8-c431862e5041-attr-7-type" class="er entityLabel">date</text><rect height="21.5" width="62.734375" y="150" x="68.4265365600586" class="er attributeBoxOdd"></rect><text style="dominant-baseline: middle; font-size: 10.2px;" transform="translate(73.4265365600586,160.75)" y="0" x="0" id="text-entity-dbostaffs-36fcb06c-2de3-5458-bea8-c431862e5041-attr-7-name" class="er entityLabel">join_date</text><rect height="21.5" width="23.803314208984375" y="150" x="131.1609115600586" class="er attributeBoxOdd"></rect><text style="dominant-baseline: middle; font-size: 10.2px;" transform="translate(136.1609115600586,160.75)" y="0" x="0" id="text-entity-dbostaffs-36fcb06c-2de3-5458-bea8-c431862e5041-attr-7-comment" class="er entityLabel"></text><rect height="21" width="68.4265365600586" y="171.5" x="0" class="er attributeBoxEven"></rect><text style="dominant-baseline: middle; font-size: 10.2px;" transform="translate(5,182)" y="0" x="0" id="text-entity-dbostaffs-36fcb06c-2de3-5458-bea8-c431862e5041-attr-8-type" class="er entityLabel">varchar(100)</text><rect height="21" width="62.734375" y="171.5" x="68.4265365600586" class="er attributeBoxEven"></rect><text style="dominant-baseline: middle; font-size: 10.2px;" transform="translate(73.4265365600586,182)" y="0" x="0" id="text-entity-dbostaffs-36fcb06c-2de3-5458-bea8-c431862e5041-attr-8-name" class="er entityLabel">position</text><rect height="21" width="23.803314208984375" y="171.5" x="131.1609115600586" class="er attributeBoxEven"></rect><text style="dominant-baseline: middle; font-size: 10.2px;" transform="translate(136.1609115600586,182)" y="0" x="0" id="text-entity-dbostaffs-36fcb06c-2de3-5458-bea8-c431862e5041-attr-8-comment" class="er entityLabel"></text><rect height="21" width="68.4265365600586" y="192.5" x="0" class="er attributeBoxOdd"></rect><text style="dominant-baseline: middle; font-size: 10.2px;" transform="translate(5,203)" y="0" x="0" id="text-entity-dbostaffs-36fcb06c-2de3-5458-bea8-c431862e5041-attr-9-type" class="er entityLabel">varchar(100)</text><rect height="21" width="62.734375" y="192.5" x="68.4265365600586" class="er attributeBoxOdd"></rect><text style="dominant-baseline: middle; font-size: 10.2px;" transform="translate(73.4265365600586,203)" y="0" x="0" id="text-entity-dbostaffs-36fcb06c-2de3-5458-bea8-c431862e5041-attr-9-name" class="er entityLabel">email</text><rect height="21" width="23.803314208984375" y="192.5" x="131.1609115600586" class="er attributeBoxOdd"></rect><text style="dominant-baseline: middle; font-size: 10.2px;" transform="translate(136.1609115600586,203)" y="0" x="0" id="text-entity-dbostaffs-36fcb06c-2de3-5458-bea8-c431862e5041-attr-9-comment" class="er entityLabel"></text><rect height="21" width="68.4265365600586" y="213.5" x="0" class="er attributeBoxEven"></rect><text style="dominant-baseline: middle; font-size: 10.2px;" transform="translate(5,224)" y="0" x="0" id="text-entity-dbostaffs-36fcb06c-2de3-5458-bea8-c431862e5041-attr-10-type" class="er entityLabel">varchar(255)</text><rect height="21" width="62.734375" y="213.5" x="68.4265365600586" class="er attributeBoxEven"></rect><text style="dominant-baseline: middle; font-size: 10.2px;" transform="translate(73.4265365600586,224)" y="0" x="0" id="text-entity-dbostaffs-36fcb06c-2de3-5458-bea8-c431862e5041-attr-10-name" class="er entityLabel">password</text><rect height="21" width="23.803314208984375" y="213.5" x="131.1609115600586" class="er attributeBoxEven"></rect><text style="dominant-baseline: middle; font-size: 10.2px;" transform="translate(136.1609115600586,224)" y="0" x="0" id="text-entity-dbostaffs-36fcb06c-2de3-5458-bea8-c431862e5041-attr-10-comment" class="er entityLabel"></text></g><g transform="translate(20,20 )" id="entity-dboproducts-b2c933d4-1d6c-5a67-b8c3-f30fabb5273f"><rect height="172" width="156.10485076904297" y="0" x="0" class="er entityBox"></rect><text style="dominant-baseline: middle; text-anchor: middle; font-size: 12px;" transform="translate(78.05242538452148,11.75)" y="0" x="0" id="text-entity-dboproducts-b2c933d4-1d6c-5a67-b8c3-f30fabb5273f" class="er entityLabel">dbo.products</text><rect height="21" width="68.4265365600586" y="23.5" x="0" class="er attributeBoxOdd"></rect><text style="dominant-baseline: middle; font-size: 10.2px;" transform="translate(5,34)" y="0" x="0" id="text-entity-dboproducts-b2c933d4-1d6c-5a67-b8c3-f30fabb5273f-attr-1-type" class="er entityLabel">varchar(50)</text><rect height="21" width="63.875" y="23.5" x="68.4265365600586" class="er attributeBoxOdd"></rect><text style="dominant-baseline: middle; font-size: 10.2px;" transform="translate(73.4265365600586,34)" y="0" x="0" id="text-entity-dboproducts-b2c933d4-1d6c-5a67-b8c3-f30fabb5273f-attr-1-name" class="er entityLabel">id</text><rect height="21" width="23.803314208984375" y="23.5" x="132.3015365600586" class="er attributeBoxOdd"></rect><text style="dominant-baseline: middle; font-size: 10.2px;" transform="translate(137.3015365600586,34)" y="0" x="0" id="text-entity-dboproducts-b2c933d4-1d6c-5a67-b8c3-f30fabb5273f-attr-1-comment" class="er entityLabel">PK</text><rect height="21" width="68.4265365600586" y="44.5" x="0" class="er attributeBoxEven"></rect><text style="dominant-baseline: middle; font-size: 10.2px;" transform="translate(5,55)" y="0" x="0" id="text-entity-dboproducts-b2c933d4-1d6c-5a67-b8c3-f30fabb5273f-attr-2-type" class="er entityLabel">varchar(100)</text><rect height="21" width="63.875" y="44.5" x="68.4265365600586" class="er attributeBoxEven"></rect><text style="dominant-baseline: middle; font-size: 10.2px;" transform="translate(73.4265365600586,55)" y="0" x="0" id="text-entity-dboproducts-b2c933d4-1d6c-5a67-b8c3-f30fabb5273f-attr-2-name" class="er entityLabel">name</text><rect height="21" width="23.803314208984375" y="44.5" x="132.3015365600586" class="er attributeBoxEven"></rect><text style="dominant-baseline: middle; font-size: 10.2px;" transform="translate(137.3015365600586,55)" y="0" x="0" id="text-entity-dboproducts-b2c933d4-1d6c-5a67-b8c3-f30fabb5273f-attr-2-comment" class="er entityLabel"></text><rect height="21" width="68.4265365600586" y="65.5" x="0" class="er attributeBoxOdd"></rect><text style="dominant-baseline: middle; font-size: 10.2px;" transform="translate(5,76)" y="0" x="0" id="text-entity-dboproducts-b2c933d4-1d6c-5a67-b8c3-f30fabb5273f-attr-3-type" class="er entityLabel">varchar(100)</text><rect height="21" width="63.875" y="65.5" x="68.4265365600586" class="er attributeBoxOdd"></rect><text style="dominant-baseline: middle; font-size: 10.2px;" transform="translate(73.4265365600586,76)" y="0" x="0" id="text-entity-dboproducts-b2c933d4-1d6c-5a67-b8c3-f30fabb5273f-attr-3-name" class="er entityLabel">type</text><rect height="21" width="23.803314208984375" y="65.5" x="132.3015365600586" class="er attributeBoxOdd"></rect><text style="dominant-baseline: middle; font-size: 10.2px;" transform="translate(137.3015365600586,76)" y="0" x="0" id="text-entity-dboproducts-b2c933d4-1d6c-5a67-b8c3-f30fabb5273f-attr-3-comment" class="er entityLabel"></text><rect height="21.5" width="68.4265365600586" y="86.5" x="0" class="er attributeBoxEven"></rect><text style="dominant-baseline: middle; font-size: 10.2px;" transform="translate(5,97.25)" y="0" x="0" id="text-entity-dboproducts-b2c933d4-1d6c-5a67-b8c3-f30fabb5273f-attr-4-type" class="er entityLabel">date</text><rect height="21.5" width="63.875" y="86.5" x="68.4265365600586" class="er attributeBoxEven"></rect><text style="dominant-baseline: middle; font-size: 10.2px;" transform="translate(73.4265365600586,97.25)" y="0" x="0" id="text-entity-dboproducts-b2c933d4-1d6c-5a67-b8c3-f30fabb5273f-attr-4-name" class="er entityLabel">import_date</text><rect height="21.5" width="23.803314208984375" y="86.5" x="132.3015365600586" class="er attributeBoxEven"></rect><text style="dominant-baseline: middle; font-size: 10.2px;" transform="translate(137.3015365600586,97.25)" y="0" x="0" id="text-entity-dboproducts-b2c933d4-1d6c-5a67-b8c3-f30fabb5273f-attr-4-comment" class="er entityLabel"></text><rect height="21" width="68.4265365600586" y="108" x="0" class="er attributeBoxOdd"></rect><text style="dominant-baseline: middle; font-size: 10.2px;" transform="translate(5,118.5)" y="0" x="0" id="text-entity-dboproducts-b2c933d4-1d6c-5a67-b8c3-f30fabb5273f-attr-5-type" class="er entityLabel">decimal</text><rect height="21" width="63.875" y="108" x="68.4265365600586" class="er attributeBoxOdd"></rect><text style="dominant-baseline: middle; font-size: 10.2px;" transform="translate(73.4265365600586,118.5)" y="0" x="0" id="text-entity-dboproducts-b2c933d4-1d6c-5a67-b8c3-f30fabb5273f-attr-5-name" class="er entityLabel">price</text><rect height="21" width="23.803314208984375" y="108" x="132.3015365600586" class="er attributeBoxOdd"></rect><text style="dominant-baseline: middle; font-size: 10.2px;" transform="translate(137.3015365600586,118.5)" y="0" x="0" id="text-entity-dboproducts-b2c933d4-1d6c-5a67-b8c3-f30fabb5273f-attr-5-comment" class="er entityLabel"></text><rect height="21.5" width="68.4265365600586" y="129" x="0" class="er attributeBoxEven"></rect><text style="dominant-baseline: middle; font-size: 10.2px;" transform="translate(5,139.75)" y="0" x="0" id="text-entity-dboproducts-b2c933d4-1d6c-5a67-b8c3-f30fabb5273f-attr-6-type" class="er entityLabel">date</text><rect height="21.5" width="63.875" y="129" x="68.4265365600586" class="er attributeBoxEven"></rect><text style="dominant-baseline: middle; font-size: 10.2px;" transform="translate(73.4265365600586,139.75)" y="0" x="0" id="text-entity-dboproducts-b2c933d4-1d6c-5a67-b8c3-f30fabb5273f-attr-6-name" class="er entityLabel">public_date</text><rect height="21.5" width="23.803314208984375" y="129" x="132.3015365600586" class="er attributeBoxEven"></rect><text style="dominant-baseline: middle; font-size: 10.2px;" transform="translate(137.3015365600586,139.75)" y="0" x="0" id="text-entity-dboproducts-b2c933d4-1d6c-5a67-b8c3-f30fabb5273f-attr-6-comment" class="er entityLabel"></text><rect height="21.5" width="68.4265365600586" y="150.5" x="0" class="er attributeBoxOdd"></rect><text style="dominant-baseline: middle; font-size: 10.2px;" transform="translate(5,161.25)" y="0" x="0" id="text-entity-dboproducts-b2c933d4-1d6c-5a67-b8c3-f30fabb5273f-attr-7-type" class="er entityLabel">varchar(50)</text><rect height="21.5" width="63.875" y="150.5" x="68.4265365600586" class="er attributeBoxOdd"></rect><text style="dominant-baseline: middle; font-size: 10.2px;" transform="translate(73.4265365600586,161.25)" y="0" x="0" id="text-entity-dboproducts-b2c933d4-1d6c-5a67-b8c3-f30fabb5273f-attr-7-name" class="er entityLabel">manager_id</text><rect height="21.5" width="23.803314208984375" y="150.5" x="132.3015365600586" class="er attributeBoxOdd"></rect><text style="dominant-baseline: middle; font-size: 10.2px;" transform="translate(137.3015365600586,161.25)" y="0" x="0" id="text-entity-dboproducts-b2c933d4-1d6c-5a67-b8c3-f30fabb5273f-attr-7-comment" class="er entityLabel">FK</text></g><g transform="translate(276.1048583984375,41.25 )" id="entity-dbopartners-8d349a84-30d5-5b88-b6bb-45d07e093fe1"><rect height="129.5" width="156.10485076904297" y="0" x="0" class="er entityBox"></rect><text style="dominant-baseline: middle; text-anchor: middle; font-size: 12px;" transform="translate(78.05242538452148,11.75)" y="0" x="0" id="text-entity-dbopartners-8d349a84-30d5-5b88-b6bb-45d07e093fe1" class="er entityLabel">dbo.partners</text><rect height="21" width="68.4265365600586" y="23.5" x="0" class="er attributeBoxOdd"></rect><text style="dominant-baseline: middle; font-size: 10.2px;" transform="translate(5,34)" y="0" x="0" id="text-entity-dbopartners-8d349a84-30d5-5b88-b6bb-45d07e093fe1-attr-1-type" class="er entityLabel">varchar(50)</text><rect height="21" width="63.875" y="23.5" x="68.4265365600586" class="er attributeBoxOdd"></rect><text style="dominant-baseline: middle; font-size: 10.2px;" transform="translate(73.4265365600586,34)" y="0" x="0" id="text-entity-dbopartners-8d349a84-30d5-5b88-b6bb-45d07e093fe1-attr-1-name" class="er entityLabel">id</text><rect height="21" width="23.803314208984375" y="23.5" x="132.3015365600586" class="er attributeBoxOdd"></rect><text style="dominant-baseline: middle; font-size: 10.2px;" transform="translate(137.3015365600586,34)" y="0" x="0" id="text-entity-dbopartners-8d349a84-30d5-5b88-b6bb-45d07e093fe1-attr-1-comment" class="er entityLabel">PK</text><rect height="21" width="68.4265365600586" y="44.5" x="0" class="er attributeBoxEven"></rect><text style="dominant-baseline: middle; font-size: 10.2px;" transform="translate(5,55)" y="0" x="0" id="text-entity-dbopartners-8d349a84-30d5-5b88-b6bb-45d07e093fe1-attr-2-type" class="er entityLabel">varchar(100)</text><rect height="21" width="63.875" y="44.5" x="68.4265365600586" class="er attributeBoxEven"></rect><text style="dominant-baseline: middle; font-size: 10.2px;" transform="translate(73.4265365600586,55)" y="0" x="0" id="text-entity-dbopartners-8d349a84-30d5-5b88-b6bb-45d07e093fe1-attr-2-name" class="er entityLabel">name</text><rect height="21" width="23.803314208984375" y="44.5" x="132.3015365600586" class="er attributeBoxEven"></rect><text style="dominant-baseline: middle; font-size: 10.2px;" transform="translate(137.3015365600586,55)" y="0" x="0" id="text-entity-dbopartners-8d349a84-30d5-5b88-b6bb-45d07e093fe1-attr-2-comment" class="er entityLabel"></text><rect height="21" width="68.4265365600586" y="65.5" x="0" class="er attributeBoxOdd"></rect><text style="dominant-baseline: middle; font-size: 10.2px;" transform="translate(5,76)" y="0" x="0" id="text-entity-dbopartners-8d349a84-30d5-5b88-b6bb-45d07e093fe1-attr-3-type" class="er entityLabel">varchar(255)</text><rect height="21" width="63.875" y="65.5" x="68.4265365600586" class="er attributeBoxOdd"></rect><text style="dominant-baseline: middle; font-size: 10.2px;" transform="translate(73.4265365600586,76)" y="0" x="0" id="text-entity-dbopartners-8d349a84-30d5-5b88-b6bb-45d07e093fe1-attr-3-name" class="er entityLabel">address</text><rect height="21" width="23.803314208984375" y="65.5" x="132.3015365600586" class="er attributeBoxOdd"></rect><text style="dominant-baseline: middle; font-size: 10.2px;" transform="translate(137.3015365600586,76)" y="0" x="0" id="text-entity-dbopartners-8d349a84-30d5-5b88-b6bb-45d07e093fe1-attr-3-comment" class="er entityLabel"></text><rect height="21.5" width="68.4265365600586" y="86.5" x="0" class="er attributeBoxEven"></rect><text style="dominant-baseline: middle; font-size: 10.2px;" transform="translate(5,97.25)" y="0" x="0" id="text-entity-dbopartners-8d349a84-30d5-5b88-b6bb-45d07e093fe1-attr-4-type" class="er entityLabel">date</text><rect height="21.5" width="63.875" y="86.5" x="68.4265365600586" class="er attributeBoxEven"></rect><text style="dominant-baseline: middle; font-size: 10.2px;" transform="translate(73.4265365600586,97.25)" y="0" x="0" id="text-entity-dbopartners-8d349a84-30d5-5b88-b6bb-45d07e093fe1-attr-4-name" class="er entityLabel">join_date</text><rect height="21.5" width="23.803314208984375" y="86.5" x="132.3015365600586" class="er attributeBoxEven"></rect><text style="dominant-baseline: middle; font-size: 10.2px;" transform="translate(137.3015365600586,97.25)" y="0" x="0" id="text-entity-dbopartners-8d349a84-30d5-5b88-b6bb-45d07e093fe1-attr-4-comment" class="er entityLabel"></text><rect height="21.5" width="68.4265365600586" y="108" x="0" class="er attributeBoxOdd"></rect><text style="dominant-baseline: middle; font-size: 10.2px;" transform="translate(5,118.75)" y="0" x="0" id="text-entity-dbopartners-8d349a84-30d5-5b88-b6bb-45d07e093fe1-attr-5-type" class="er entityLabel">varchar(50)</text><rect height="21.5" width="63.875" y="108" x="68.4265365600586" class="er attributeBoxOdd"></rect><text style="dominant-baseline: middle; font-size: 10.2px;" transform="translate(73.4265365600586,118.75)" y="0" x="0" id="text-entity-dbopartners-8d349a84-30d5-5b88-b6bb-45d07e093fe1-attr-5-name" class="er entityLabel">manager_id</text><rect height="21.5" width="23.803314208984375" y="108" x="132.3015365600586" class="er attributeBoxOdd"></rect><text style="dominant-baseline: middle; font-size: 10.2px;" transform="translate(137.3015365600586,118.75)" y="0" x="0" id="text-entity-dbopartners-8d349a84-30d5-5b88-b6bb-45d07e093fe1-attr-5-comment" class="er entityLabel">FK</text></g><rect height="13.499984741210938" width="9.34375" y="247.9951400756836" x="106.77787780761719" class="er relationshipLabelBox"></rect><text style="text-anchor: middle; dominant-baseline: middle; font-size: 12px;" y="254.74513244628906" x="111.44975280761719" id="rel1" class="er relationshipLabel">id</text><rect height="13.5" width="9.34375" y="238.15089416503906" x="339.59210205078125" class="er relationshipLabelBox"></rect><text style="text-anchor: middle; dominant-baseline: middle; font-size: 12px;" y="244.90089416503906" x="344.26397705078125" id="rel2" class="er relationshipLabel">id</text></svg>